<svg width="26" height="26" viewBox="0 0 26 26" fill="none" xmlns="http://www.w3.org/2000/svg">
<path fill-rule="evenodd" clip-rule="evenodd" d="M10.246 17.44C5.25912 17.44 1 18.1937 1 21.2139C1 24.2328 5.23188 25.0151 10.246 25.0151C15.233 25.0151 19.4921 24.26 19.4921 21.2412C19.4921 18.2223 15.2602 17.44 10.246 17.44Z" stroke="#999999" stroke-width="1.5" stroke-linecap="round" stroke-linejoin="round"/>
<path fill-rule="evenodd" clip-rule="evenodd" d="M10.246 13.1325C13.536 13.1325 16.1722 10.4951 16.1722 7.20633C16.1722 3.91632 13.536 1.28015 10.246 1.28015C6.95729 1.28015 4.31982 3.91632 4.31982 7.20633C4.31982 10.4951 6.95729 13.1325 10.246 13.1325Z" stroke="#999999" stroke-width="1.5" stroke-linecap="round" stroke-linejoin="round"/>
<path d="M22.3458 8.95929V14.1616" stroke="#999999" stroke-width="1.5" stroke-linecap="round" stroke-linejoin="round"/>
<path d="M24.9999 11.5602H19.6938" stroke="#999999" stroke-width="1.5" stroke-linecap="round" stroke-linejoin="round"/>
</svg>
